<svg width="40" height="35" viewBox="0 0 40 35" fill="none" xmlns="http://www.w3.org/2000/svg">
<path d="M37.7344 4.375H30.625V1.64062C30.625 0.731445 29.8936 0 28.9844 0H10.3906C9.48145 0 8.75 0.731445 8.75 1.64062V4.375H1.64062C0.731445 4.375 0 5.10645 0 6.01562V9.84375C0 12.2842 1.53809 14.793 4.23145 16.7275C6.38477 18.2793 9.00293 19.2637 11.751 19.5781C13.8975 23.1396 16.4062 24.6094 16.4062 24.6094V29.5312H13.125C10.7119 29.5312 8.75 30.9463 8.75 33.3594V34.1797C8.75 34.6309 9.11914 35 9.57031 35H29.8047C30.2559 35 30.625 34.6309 30.625 34.1797V33.3594C30.625 30.9463 28.6631 29.5312 26.25 29.5312H22.9688V24.6094C22.9688 24.6094 25.4775 23.1396 27.624 19.5781C30.3789 19.2637 32.9971 18.2793 35.1436 16.7275C37.8301 14.793 39.375 12.2842 39.375 9.84375V6.01562C39.375 5.10645 38.6436 4.375 37.7344 4.375ZM6.78809 13.1797C5.12012 11.9766 4.375 10.6367 4.375 9.84375V8.75H8.76367C8.83203 10.9785 9.16016 12.9336 9.63867 14.6426C8.60645 14.2871 7.64258 13.7949 6.78809 13.1797ZM35 9.84375C35 10.9443 33.79 12.3115 32.5869 13.1797C31.7324 13.7949 30.7617 14.2871 29.7295 14.6426C30.208 12.9336 30.5361 10.9785 30.6045 8.75H35V9.84375Z" fill="#D1D0C5"/>
</svg>
