<svg width="31" height="35" viewBox="0 0 31 35" fill="none" xmlns="http://www.w3.org/2000/svg">
<path d="M30.625 24.6094V1.64062C30.625 0.731445 29.8936 0 28.9844 0H6.5625C2.93945 0 0 2.93945 0 6.5625V28.4375C0 32.0605 2.93945 35 6.5625 35H28.9844C29.8936 35 30.625 34.2686 30.625 33.3594V32.2656C30.625 31.7529 30.3857 31.2881 30.0166 30.9873C29.7295 29.9346 29.7295 26.9336 30.0166 25.8809C30.3857 25.5869 30.625 25.1221 30.625 24.6094ZM8.75 9.16016C8.75 8.93457 8.93457 8.75 9.16016 8.75H23.6523C23.8779 8.75 24.0625 8.93457 24.0625 9.16016V10.5273C24.0625 10.7529 23.8779 10.9375 23.6523 10.9375H9.16016C8.93457 10.9375 8.75 10.7529 8.75 10.5273V9.16016ZM8.75 13.5352C8.75 13.3096 8.93457 13.125 9.16016 13.125H23.6523C23.8779 13.125 24.0625 13.3096 24.0625 13.5352V14.9023C24.0625 15.1279 23.8779 15.3125 23.6523 15.3125H9.16016C8.93457 15.3125 8.75 15.1279 8.75 14.9023V13.5352ZM26.0723 30.625H6.5625C5.35254 30.625 4.375 29.6475 4.375 28.4375C4.375 27.2344 5.35937 26.25 6.5625 26.25H26.0723C25.9424 27.4189 25.9424 29.4561 26.0723 30.625Z" fill="#D1D0C5"/>
</svg>
