<svg width="44" height="35" viewBox="0 0 44 35" fill="none" xmlns="http://www.w3.org/2000/svg">
<path d="M19.0686 34.9659L14.8983 33.7559C14.4608 33.6328 14.2147 33.1748 14.3377 32.7372L23.6695 0.59223C23.7926 0.154697 24.2506 -0.0914153 24.6881 0.0316409L28.8584 1.24169C29.2959 1.36475 29.542 1.82279 29.419 2.26032L20.0872 34.4053C19.9573 34.8429 19.5061 35.0958 19.0686 34.9659ZM11.275 27.2954L14.2489 24.1233C14.5634 23.7883 14.5428 23.2551 14.1942 22.9474L8.00036 17.4988L14.1942 12.0501C14.5428 11.7425 14.5702 11.2092 14.2489 10.8743L11.275 7.70214C10.9674 7.37399 10.4478 7.35348 10.1128 7.66796L0.261494 16.8972C-0.0871648 17.2185 -0.0871648 17.7722 0.261494 18.0935L10.1128 27.3296C10.4478 27.6441 10.9674 27.6304 11.275 27.2954ZM33.6439 27.3364L43.4952 18.1004C43.8439 17.7791 43.8439 17.2253 43.4952 16.904L33.6439 7.66112C33.3157 7.35348 32.7962 7.36715 32.4817 7.6953L29.5078 10.8674C29.1934 11.2024 29.2139 11.7356 29.5625 12.0433L35.7564 17.4988L29.5625 22.9474C29.2139 23.2551 29.1865 23.7883 29.5078 24.1233L32.4817 27.2954C32.7893 27.6304 33.3089 27.6441 33.6439 27.3364Z" fill="#D1D0C5"/>
</svg>
