<svg width="35" height="35" viewBox="0 0 35 35" fill="none" xmlns="http://www.w3.org/2000/svg">
<path d="M34.8983 17.487C30.1153 17.4289 26.253 13.5435 26.253 8.74678C21.4564 8.74678 17.5716 4.88523 17.5128 0.1029C15.6493 -0.180102 13.7442 0.123408 12.0633 0.979251L7.33768 3.38682C5.63653 4.25376 4.25362 5.63715 3.38727 7.3386L0.987901 12.0471C0.118971 13.7529 -0.187794 15.6899 0.111551 17.5807L0.937316 22.7944C1.23636 24.6833 2.12555 26.4291 3.4775 27.7818L7.22147 31.525C8.56915 32.8732 10.3091 33.76 12.1918 34.0584L17.4355 34.8889C19.3161 35.187 21.2431 34.8814 22.9404 34.0167L27.666 31.6098C29.367 30.7427 30.7499 29.3593 31.6164 27.658L34.0158 22.9495C34.8744 21.2652 35.1785 19.3553 34.8983 17.487ZM12.0311 25.1554C10.8233 25.1554 9.84369 24.1759 9.84369 22.968C9.84369 21.7601 10.8233 20.7805 12.0311 20.7805C13.239 20.7805 14.2186 21.7601 14.2186 22.968C14.2186 24.1759 13.239 25.1554 12.0311 25.1554ZM14.2186 14.2182C13.0107 14.2182 12.0311 13.2386 12.0311 12.0307C12.0311 10.8228 13.0107 9.84324 14.2186 9.84324C15.4265 9.84324 16.4061 10.8228 16.4061 12.0307C16.4061 13.2386 15.4265 14.2182 14.2186 14.2182ZM25.1559 22.968C23.948 22.968 22.9684 21.9884 22.9684 20.7805C22.9684 19.5726 23.948 18.5931 25.1559 18.5931C26.3638 18.5931 27.3433 19.5726 27.3433 20.7805C27.3433 21.9884 26.3638 22.968 25.1559 22.968Z" fill="#D1D0C5"/>
</svg>
