<svg width="46" height="35" viewBox="0 0 46 35" fill="none" xmlns="http://www.w3.org/2000/svg">
<path d="M38.8719 2.90131C35.9453 1.55842 32.8068 0.569037 29.5254 0.00237707C29.4656 -0.0085593 29.4059 0.0187713 29.3752 0.0734337C28.9715 0.791322 28.5244 1.72786 28.2114 2.46398C24.682 1.9356 21.1707 1.9356 17.7137 2.46398C17.4005 1.7115 16.9372 0.791322 16.5318 0.0734337C16.501 0.0205951 16.4413 -0.00673549 16.3815 0.00237707C13.1019 0.567226 9.96347 1.55661 7.03497 2.90131C7.00962 2.91224 6.98789 2.93048 6.97347 2.95415C1.02052 11.8477 -0.610238 20.5227 0.189758 29.0901C0.193378 29.132 0.216907 29.1721 0.249487 29.1976C4.17707 32.0819 7.98161 33.833 11.7155 34.9936C11.7752 35.0119 11.8386 34.99 11.8766 34.9408C12.7598 33.7346 13.5472 32.4628 14.2223 31.1253C14.2621 31.047 14.2241 30.9541 14.1426 30.9231C12.8938 30.4494 11.7046 29.8718 10.5607 29.2158C10.4703 29.163 10.463 29.0336 10.5463 28.9716C10.787 28.7913 11.0277 28.6036 11.2576 28.4141C11.2992 28.3795 11.3571 28.3722 11.406 28.394C18.9209 31.8251 27.0566 31.8251 34.4828 28.394C34.5317 28.3704 34.5896 28.3777 34.633 28.4123C34.8629 28.6018 35.1037 28.7913 35.3462 28.9716C35.4294 29.0336 35.424 29.163 35.3335 29.2158C34.1896 29.8845 33.0005 30.4494 31.7498 30.9213C31.6684 30.9523 31.6322 31.047 31.672 31.1253C32.3615 32.4609 33.1489 33.7327 34.0158 34.939C34.0521 34.99 34.1172 35.0119 34.1769 34.9936C37.9289 33.833 41.7334 32.0819 45.661 29.1976C45.6954 29.1721 45.7172 29.1338 45.7208 29.0919C46.6782 19.187 44.1171 10.5832 38.9316 2.95596C38.919 2.93048 38.8973 2.91224 38.8719 2.90131ZM15.3445 23.8735C13.082 23.8735 11.2178 21.7963 11.2178 19.2454C11.2178 16.6944 13.0458 14.6173 15.3445 14.6173C17.6612 14.6173 19.5073 16.7127 19.4711 19.2454C19.4711 21.7963 17.6431 23.8735 15.3445 23.8735ZM30.6023 23.8735C28.3399 23.8735 26.4756 21.7963 26.4756 19.2454C26.4756 16.6944 28.3036 14.6173 30.6023 14.6173C32.919 14.6173 34.7652 16.7127 34.729 19.2454C34.729 21.7963 32.919 23.8735 30.6023 23.8735Z" fill="#D1D0C5"/>
</svg>
