<svg width="35" height="35" viewBox="0 0 35 35" fill="none" xmlns="http://www.w3.org/2000/svg">
<path d="M17.5 28.4375C25.3545 28.4375 31.7188 22.0732 31.7188 14.2188C31.7188 6.36426 25.3545 0 17.5 0C9.64551 0 3.28125 6.36426 3.28125 14.2188C3.28125 22.0732 9.64551 28.4375 17.5 28.4375ZM15.9824 6.6582V5.50977C15.9824 4.88086 16.4883 4.375 17.1172 4.375H17.876C18.5049 4.375 19.0107 4.88086 19.0107 5.50977V6.67187C20.0703 6.72656 21.0957 7.08887 21.9502 7.72461C22.333 8.00488 22.374 8.56543 22.0322 8.89356L20.918 9.95313C20.6582 10.2061 20.2686 10.2129 19.9609 10.0215C19.5918 9.78906 19.1816 9.67285 18.7441 9.67285H16.085C15.4697 9.67285 14.9707 10.2334 14.9707 10.9238C14.9707 11.4844 15.3125 11.9834 15.7979 12.127L20.0566 13.4053C21.8135 13.9316 23.0439 15.6201 23.0439 17.5137C23.0439 19.8379 21.2393 21.7178 19.0039 21.7793V22.9277C19.0039 23.5566 18.498 24.0625 17.8691 24.0625H17.1104C16.4814 24.0625 15.9756 23.5566 15.9756 22.9277V21.7656C14.916 21.7109 13.8906 21.3486 13.0361 20.7129C12.6533 20.4326 12.6123 19.8721 12.9541 19.5439L14.0684 18.4844C14.3281 18.2314 14.7178 18.2246 15.0254 18.416C15.3945 18.6484 15.8047 18.7646 16.2422 18.7646H18.9014C19.5166 18.7646 20.0156 18.2041 20.0156 17.5137C20.0156 16.9531 19.6738 16.4541 19.1885 16.3105L14.9297 15.0322C13.1729 14.5059 11.9424 12.8174 11.9424 10.9238C11.9492 8.59961 13.7471 6.71973 15.9824 6.6582ZM32.8125 24.0625H30.5908C29.251 25.8398 27.542 27.3232 25.6006 28.4375H29.9619C30.3242 28.4375 30.6182 28.6836 30.6182 28.9844V30.0781C30.6182 30.3789 30.3242 30.625 29.9619 30.625H5.03125C4.66895 30.625 4.375 30.3789 4.375 30.0781V28.9844C4.375 28.6836 4.66895 28.4375 5.03125 28.4375H9.39258C7.45117 27.3232 5.74902 25.8398 4.40234 24.0625H2.1875C0.977539 24.0625 0 25.04 0 26.25V32.8125C0 34.0225 0.977539 35 2.1875 35H32.8125C34.0225 35 35 34.0225 35 32.8125V26.25C35 25.04 34.0225 24.0625 32.8125 24.0625Z" fill="#D1D0C5"/>
</svg>
