<svg width="33" height="35" viewBox="0 0 33 35" fill="none" xmlns="http://www.w3.org/2000/svg">
<path d="M30.7989 5.72053L17.6726 0.25125C17.2728 0.0853792 16.8441 0 16.4113 0C15.9784 0 15.5498 0.0853792 15.1499 0.25125L2.02363 5.72053C0.799883 6.22644 0 7.42285 0 8.74915C0 22.3198 7.82791 31.6996 15.1431 34.7488C15.9498 35.0837 16.8591 35.0837 17.6658 34.7488C23.5248 32.3081 32.8157 23.8786 32.8157 8.74915C32.8157 7.42285 32.0158 6.22644 30.7989 5.72053ZM16.4147 30.5101L16.4079 4.4626L28.4334 9.47383C28.2078 19.8244 22.8206 27.3242 16.4147 30.5101Z" fill="#D1D0C5"/>
</svg>
