<svg width="46" height="35" viewBox="0 0 46 35" fill="none" xmlns="http://www.w3.org/2000/svg">
<path d="M37.1388 34.282H29.6396C29.0504 34.282 28.5683 33.7999 28.5683 33.2107V29.6396C28.5683 29.0504 29.0504 28.5683 29.6396 28.5683H37.1388C38.719 28.5683 39.9957 27.2917 39.9957 25.7115V8.5705C39.9957 6.99031 38.719 5.71367 37.1388 5.71367H29.6396C29.0504 5.71367 28.5683 5.23158 28.5683 4.64235V1.07131C28.5683 0.482091 29.0504 0 29.6396 0H37.1388C41.8705 0 45.7093 3.83887 45.7093 8.5705V25.7115C45.7093 30.4431 41.8705 34.282 37.1388 34.282ZM32.9429 16.3375L17.9445 1.33914C16.6053 0 14.2842 0.937398 14.2842 2.85683V11.4273H2.14262C0.955254 11.4273 0 12.3826 0 13.57V22.1405C0 23.3278 0.955254 24.2831 2.14262 24.2831H14.2842V32.8536C14.2842 34.773 16.6053 35.7104 17.9445 34.3713L32.9429 19.3729C33.7731 18.5337 33.7731 17.1767 32.9429 16.3375Z" fill="#D1D0C5"/>
</svg>
