<svg width="46" height="35" viewBox="0 0 46 35" fill="none" xmlns="http://www.w3.org/2000/svg">
<path d="M45.292 19.0483L29.982 34.3582C28.615 35.7252 26.2456 34.7683 26.2456 32.809V24.0604H13.8519C12.6398 24.0604 11.6647 23.0853 11.6647 21.8733V13.1248C11.6647 11.9127 12.6398 10.9376 13.8519 10.9376H26.2456V2.18907C26.2456 0.238878 28.6059 -0.727107 29.982 0.639853L45.292 15.9498C46.1395 16.8064 46.1395 18.1916 45.292 19.0483ZM17.4971 33.9026V30.2573C17.4971 29.6559 17.005 29.1638 16.4035 29.1638H8.74855C7.13553 29.1638 5.83236 27.8606 5.83236 26.2476V8.75049C5.83236 7.13747 7.13553 5.8343 8.74855 5.8343H16.4035C17.005 5.8343 17.4971 5.3422 17.4971 4.74073V1.09551C17.4971 0.494044 17.005 0.00193822 16.4035 0.00193822H8.74855C3.91862 0.00193822 0 3.92056 0 8.75049V26.2476C0 31.0775 3.91862 34.9961 8.74855 34.9961H16.4035C17.005 34.9961 17.4971 34.504 17.4971 33.9026Z" fill="#D1D0C5"/>
</svg>
