<svg width="47" height="35" viewBox="0 0 47 35" fill="none" xmlns="http://www.w3.org/2000/svg">
<path d="M45.7826 11.5573C46.138 11.2747 46.6667 11.5391 46.6667 11.9857V30.625C46.6667 33.0404 44.707 35 42.2917 35H4.375C1.95964 35 0 33.0404 0 30.625V11.9948C0 11.5391 0.519531 11.2839 0.884115 11.5664C2.92578 13.1523 5.63281 15.1667 14.9297 21.9206C16.8529 23.3242 20.0977 26.2773 23.3333 26.2591C26.5872 26.2865 29.8958 23.2695 31.7461 21.9206C41.043 15.1667 43.7409 13.1432 45.7826 11.5573ZM23.3333 23.3333C25.4479 23.3698 28.4922 20.6719 30.0234 19.5599C42.1185 10.7826 43.0391 10.0169 45.8281 7.82943C46.3568 7.41927 46.6667 6.78125 46.6667 6.10677V4.375C46.6667 1.95964 44.707 0 42.2917 0H4.375C1.95964 0 0 1.95964 0 4.375V6.10677C0 6.78125 0.309896 7.41016 0.838542 7.82943C3.6276 10.0078 4.54818 10.7826 16.6432 19.5599C18.1745 20.6719 21.2188 23.3698 23.3333 23.3333Z" fill="#D1D0C5"/>
</svg>
